<?xml version="1.0" standalone="no"?>
<!DOCTYPE svg PUBLIC "-//W3C//DTD SVG 20010904//EN"
 "http://www.w3.org/TR/2001/REC-SVG-20010904/DTD/svg10.dtd">
<svg version="1.0" xmlns="http://www.w3.org/2000/svg"
 width="512.000000pt" height="512.000000pt" viewBox="0 0 512.000000 512.000000"
 preserveAspectRatio="xMidYMid meet">

<g transform="translate(0.000000,512.000000) scale(0.100000,-0.100000)"
fill="#000000" stroke="none">
<path d="M435 5110 c-192 -39 -346 -177 -411 -370 -18 -53 -19 -130 -19 -2180
0 -2050 1 -2127 19 -2180 56 -166 170 -285 336 -350 l65 -25 1480 -3 c1320 -2
1488 -1 1552 13 65 15 81 15 176 1 558 -83 1100 202 1357 713 38 77 92 239
111 336 21 106 18 388 -5 495 -56 260 -169 465 -360 656 -223 224 -475 343
-798 379 l-57 6 -3 727 -3 727 -25 65 c-14 36 -43 91 -63 122 -44 66 -732 735
-812 789 -29 20 -82 47 -117 60 l-63 24 -1160 1 c-638 1 -1178 -2 -1200 -6z
m2309 -116 c14 -5 16 -53 16 -434 l0 -428 28 -53 c20 -39 41 -62 77 -84 l48
-30 424 -3 423 -3 0 -679 0 -679 -57 -6 c-228 -25 -430 -99 -619 -225 -98 -66
-273 -241 -337 -338 l-48 -72 -610 0 c-596 0 -609 0 -629 -20 -25 -25 -25 -55
0 -80 20 -20 33 -20 599 -20 l580 0 -25 -56 c-13 -31 -35 -97 -48 -148 -61
-233 -61 -438 -2 -668 l23 -88 -553 0 c-541 0 -554 0 -574 -20 -25 -25 -25
-55 0 -80 20 -20 33 -20 598 -20 l577 0 25 -47 c54 -104 144 -228 225 -312 94
-97 160 -149 292 -229 l88 -52 -1410 2 -1410 3 -55 23 c-113 46 -196 129 -242
242 l-23 55 -3 2089 c-2 1860 -1 2096 13 2150 28 108 93 197 187 253 106 64
51 62 1285 62 617 1 1128 -2 1137 -5z m561 -434 c328 -317 402 -397 420 -457
l6 -23 -391 0 -392 0 -34 34 -34 34 0 401 0 402 35 -24 c19 -13 195 -178 390
-367z m660 -2090 c259 -36 475 -138 659 -311 318 -300 444 -733 335 -1157 -33
-129 -128 -325 -198 -411 l-29 -35 -17 59 c-76 262 -309 508 -568 598 l-65 23
58 57 c249 245 147 664 -187 767 -278 86 -568 -113 -590 -405 -11 -138 37
-264 137 -363 l59 -59 -57 -17 c-77 -24 -172 -76 -259 -143 -142 -107 -256
-271 -318 -452 l-21 -65 -46 65 c-130 183 -218 455 -218 676 0 210 68 447 182
631 105 171 320 360 500 441 202 91 442 129 643 101z"/>
<path d="M545 4381 c-94 -43 -105 -79 -105 -341 0 -262 11 -298 105 -341 35
-16 68 -19 255 -19 187 0 220 3 255 19 94 43 105 79 105 341 0 262 -11 298
-105 341 -35 16 -68 19 -255 19 -187 0 -220 -3 -255 -19z m475 -121 c19 -19
20 -33 20 -220 0 -187 -1 -201 -20 -220 -19 -19 -33 -20 -220 -20 -187 0 -201
1 -220 20 -19 19 -20 33 -20 220 0 187 1 201 20 220 19 19 33 20 220 20 187 0
201 -1 220 -20z"/>
<path d="M1460 4100 c-11 -11 -20 -29 -20 -40 0 -11 9 -29 20 -40 19 -19 33
-20 540 -20 507 0 521 1 540 20 11 11 20 29 20 40 0 11 -9 29 -20 40 -19 19
-33 20 -540 20 -507 0 -521 -1 -540 -20z"/>
<path d="M545 3301 c-94 -43 -105 -79 -105 -341 0 -262 11 -298 105 -341 35
-16 68 -19 255 -19 187 0 220 3 255 19 94 43 105 79 105 341 0 262 -11 298
-105 341 -35 16 -68 19 -255 19 -187 0 -220 -3 -255 -19z m475 -121 c19 -19
20 -33 20 -220 0 -187 -1 -201 -20 -220 -19 -19 -33 -20 -220 -20 -187 0 -201
1 -220 20 -19 19 -20 33 -20 220 0 187 1 201 20 220 19 19 33 20 220 20 187 0
201 -1 220 -20z"/>
<path d="M1460 3020 c-11 -11 -20 -29 -20 -40 0 -11 9 -29 20 -40 20 -20 33
-20 950 -20 917 0 930 0 950 20 11 11 20 29 20 40 0 11 -9 29 -20 40 -20 20
-33 20 -950 20 -917 0 -930 0 -950 -20z"/>
<path d="M545 2221 c-94 -43 -105 -79 -105 -341 0 -262 11 -298 105 -341 35
-16 68 -19 255 -19 187 0 220 3 255 19 94 43 105 79 105 341 0 262 -11 298
-105 341 -35 16 -68 19 -255 19 -187 0 -220 -3 -255 -19z m475 -121 c19 -19
20 -33 20 -220 0 -187 -1 -201 -20 -220 -19 -19 -33 -20 -220 -20 -187 0 -201
1 -220 20 -19 19 -20 33 -20 220 0 187 1 201 20 220 19 19 33 20 220 20 187 0
201 -1 220 -20z"/>
<path d="M545 1141 c-94 -43 -105 -79 -105 -341 0 -262 11 -298 105 -341 35
-16 68 -19 255 -19 187 0 220 3 255 19 94 43 105 79 105 341 0 262 -11 298
-105 341 -35 16 -68 19 -255 19 -187 0 -220 -3 -255 -19z m475 -121 c19 -19
20 -33 20 -220 0 -187 -1 -201 -20 -220 -19 -19 -33 -20 -220 -20 -187 0 -201
1 -220 20 -19 19 -20 33 -20 220 0 187 1 201 20 220 19 19 33 20 220 20 187 0
201 -1 220 -20z"/>
</g>
</svg>
