<?xml version="1.0" standalone="no"?>
<!DOCTYPE svg PUBLIC "-//W3C//DTD SVG 20010904//EN"
 "http://www.w3.org/TR/2001/REC-SVG-20010904/DTD/svg10.dtd">
<svg version="1.0" xmlns="http://www.w3.org/2000/svg"
 width="512.000000pt" height="512.000000pt" viewBox="0 0 512.000000 512.000000"
 preserveAspectRatio="xMidYMid meet">

<g transform="translate(0.000000,512.000000) scale(0.100000,-0.100000)"
fill="#000000" stroke="none">
<path d="M2445 4774 c-528 -58 -953 -413 -1100 -919 -35 -123 -37 -181 -6
-206 30 -24 76 -24 100 0 10 10 26 53 36 97 76 342 290 615 600 765 368 178
775 148 1119 -83 82 -55 231 -207 287 -293 197 -301 241 -647 125 -987 -29
-85 -90 -206 -131 -262 -14 -18 -17 -16 -60 32 -89 99 -237 212 -367 280 l-75
40 38 48 c93 119 141 283 121 422 -12 85 -44 183 -68 207 -27 26 -63 29 -92 8
-33 -25 -39 -62 -18 -118 62 -162 28 -332 -93 -458 -66 -69 -84 -105 -75 -145
10 -43 33 -62 122 -103 153 -71 280 -163 401 -292 l54 -57 -29 -31 c-51 -54
-184 -149 -268 -191 -318 -160 -667 -165 -983 -13 -51 24 -119 62 -151 84 -71
48 -174 140 -170 152 2 5 41 47 87 94 102 103 200 172 346 245 94 47 113 60
128 92 25 52 14 81 -60 160 -74 79 -107 144 -123 243 -35 214 110 423 329 475
65 15 170 9 231 -15 74 -28 115 -30 139 -6 28 28 27 76 -2 105 -13 13 -54 34
-93 47 -57 20 -89 24 -184 24 -140 0 -214 -22 -325 -96 -129 -86 -209 -211
-241 -372 -31 -157 6 -316 104 -446 l48 -64 -75 -40 c-134 -70 -268 -172 -360
-273 -28 -31 -54 -54 -56 -52 -3 2 -27 41 -54 86 -72 121 -104 216 -147 440
-6 31 -39 62 -68 62 -13 0 -36 -10 -51 -22 -27 -21 -28 -23 -22 -97 25 -315
254 -682 546 -874 217 -143 439 -210 701 -210 356 0 664 132 909 389 137 143
230 297 290 480 234 718 -215 1479 -961 1629 -80 16 -281 26 -353 19z"/>
<path d="M610 1930 c-376 -97 -632 -447 -607 -830 8 -121 27 -193 82 -305 99
-205 272 -350 500 -422 l90 -28 1468 -3 1467 -3 25 25 c32 32 33 75 2 104
l-23 21 -1459 4 c-1609 3 -1486 -2 -1628 65 -139 65 -240 166 -308 307 -53
108 -73 206 -65 320 11 176 66 297 195 425 65 64 105 95 161 122 147 72 2 68
2050 68 2048 0 1903 4 2050 -68 111 -54 233 -178 289 -292 54 -111 74 -208 68
-325 -13 -238 -149 -445 -363 -553 -116 -59 -153 -64 -457 -69 l-277 -5 -20
-25 c-23 -29 -24 -42 -9 -77 21 -45 48 -48 331 -44 228 4 274 8 343 26 228 61
419 218 520 427 55 112 74 184 82 305 25 385 -233 735 -611 830 -78 20 -115
20 -1950 19 -1816 0 -1873 -1 -1946 -19z"/>
<path d="M900 1370 c-96 -45 -144 -118 -144 -220 0 -138 102 -240 239 -240 67
0 108 16 160 61 50 45 78 109 77 179 0 63 -13 101 -48 147 -62 81 -194 115
-284 73z m139 -145 c33 -16 41 -33 41 -81 0 -72 -85 -110 -143 -64 -34 27 -43
70 -22 110 25 48 73 62 124 35z"/>
<path d="M1697 1376 c-58 -21 -105 -63 -133 -118 -22 -44 -26 -61 -22 -124 3
-61 8 -79 33 -116 49 -69 104 -101 181 -106 88 -6 141 15 198 79 70 78 83 176
37 267 -54 105 -184 157 -294 118z m147 -166 c32 -31 28 -96 -7 -126 -61 -52
-147 -15 -147 63 1 40 13 62 45 81 27 17 84 7 109 -18z"/>
<path d="M2472 1372 c-23 -9 -60 -34 -82 -55 -109 -107 -88 -290 44 -372 44
-27 58 -30 126 -30 68 0 82 3 126 30 30 19 60 49 79 80 27 43 30 57 30 124 -1
86 -13 116 -70 173 -65 64 -166 84 -253 50z m149 -161 c59 -59 22 -150 -61
-150 -83 0 -120 91 -61 150 40 39 82 39 122 0z"/>
<path d="M3250 1369 c-154 -69 -196 -251 -87 -375 50 -56 105 -83 171 -84 145
0 246 97 246 238 0 175 -174 292 -330 221z m133 -141 c34 -18 46 -39 47 -81 0
-75 -83 -114 -143 -67 -83 65 3 198 96 148z"/>
<path d="M4046 1375 c-170 -60 -215 -286 -81 -404 52 -45 93 -61 160 -61 95 0
171 47 218 135 29 54 29 154 0 210 -57 109 -184 160 -297 120z m118 -145 c58
-22 69 -110 19 -150 -60 -47 -143 -8 -143 68 0 71 56 108 124 82z"/>
</g>
</svg>
