<?xml version="1.0" standalone="no"?>
<!DOCTYPE svg PUBLIC "-//W3C//DTD SVG 20010904//EN"
 "http://www.w3.org/TR/2001/REC-SVG-20010904/DTD/svg10.dtd">
<svg version="1.0" xmlns="http://www.w3.org/2000/svg"
 width="512.000000pt" height="512.000000pt" viewBox="0 0 512.000000 512.000000"
 preserveAspectRatio="xMidYMid meet">

<g transform="translate(0.000000,512.000000) scale(0.100000,-0.100000)"
fill="#000000" stroke="none">
<path d="M3030 5110 c-321 -45 -585 -174 -805 -395 -198 -197 -321 -430 -377
-710 -26 -131 -28 -351 -4 -485 88 -494 440 -902 914 -1060 160 -53 240 -65
432 -65 131 1 196 5 260 19 234 50 420 138 603 286 246 197 428 511 481 829
20 120 21 332 1 447 -96 560 -522 1001 -1075 1114 -117 24 -330 34 -430 20z
m410 -364 c455 -117 770 -522 770 -991 0 -762 -802 -1255 -1485 -912 -277 139
-475 400 -539 710 -21 101 -21 288 -1 397 63 330 311 632 616 750 218 84 432
100 639 46z"/>
<path d="M1633 5085 c-460 -104 -837 -438 -993 -880 -255 -724 134 -1510 867
-1751 143 -47 224 -53 278 -22 82 47 108 163 54 242 -30 44 -60 60 -174 91
-706 197 -986 1035 -540 1615 136 176 330 301 565 365 130 34 169 63 189 140
25 100 -41 196 -144 209 -22 3 -68 -1 -102 -9z"/>
<path d="M1175 2039 c-336 -40 -650 -234 -840 -519 -91 -136 -115 -196 -227
-565 -112 -372 -123 -436 -94 -559 45 -192 202 -345 394 -385 79 -16 484 -14
525 3 44 18 95 78 103 121 14 75 -22 152 -86 186 -31 17 -60 19 -250 19 -204
0 -218 1 -260 23 -25 12 -55 37 -67 56 -45 67 -43 79 57 415 50 171 107 344
126 384 132 287 407 468 742 489 116 7 148 21 190 83 20 29 23 45 20 95 -5 74
-30 115 -91 144 -47 23 -113 25 -242 10z"/>
<path d="M2432 2039 c-368 -47 -689 -261 -880 -584 -61 -103 -84 -165 -189
-514 -103 -343 -117 -422 -94 -534 29 -137 135 -279 258 -345 122 -65 39 -62
1654 -62 951 0 1485 4 1520 10 30 6 86 25 124 44 181 86 288 257 287 461 0 84
-6 110 -96 410 -53 176 -110 354 -127 395 -163 393 -528 667 -959 720 -100 12
-1403 12 -1498 -1z m1573 -357 c250 -70 435 -221 549 -449 45 -89 216 -661
216 -721 0 -60 -25 -109 -73 -140 l-41 -27 -1445 -3 c-986 -2 -1458 0 -1482 8
-20 5 -49 20 -64 32 -31 24 -64 90 -65 129 0 42 187 654 221 722 127 252 365
425 644 466 33 5 375 8 760 7 691 -2 701 -2 780 -24z"/>
</g>
</svg>
